<svg width="100" height="100" viewBox="0 0 100 100" fill="none" xmlns="http://www.w3.org/2000/svg">
  <path d="M83.9042 41.732C82.8908 23.8964 68.2487 10 50.3272 10C32.3875 10 17.7248 23.9261 16.7502 41.79C13.9974 42.6887 12 45.2788 12 48.3277V59.0323C12 62.3585 14.3702 65.14 17.5149 65.78C19.1876 79.1606 26.958 85.9385 40.6926 85.9385C41.486 85.9385 42.308 85.9098 43.1394 85.8618C43.9994 88.2705 46.2935 90 48.989 90C52.4105 90 55.2012 87.2091 55.2012 83.7878C55.2012 80.3662 52.4103 77.5755 48.989 77.5755C45.9014 77.5755 43.3399 79.8409 42.8626 82.8038C29.5198 83.4918 22.2177 77.8815 20.5928 65.6953C23.565 64.9306 25.7638 62.2451 25.7638 59.0337V48.3291C25.7638 44.8596 23.1736 41.9827 19.8282 41.5241C20.9276 25.4959 34.1649 13.0605 50.3279 13.0605C66.5001 13.0605 79.737 25.5045 80.8276 41.5531C77.5781 42.0978 75.0834 44.9273 75.0834 48.3294V59.034C75.0834 62.8281 78.1709 65.9156 81.965 65.9156C85.7591 65.9156 88.8466 62.8281 88.8466 59.034V48.3294C88.846 45.2026 86.7524 42.5652 83.9044 41.7331L83.9042 41.732ZM48.9891 80.6323C50.7285 80.6323 52.1432 82.0471 52.1432 83.7864C52.1432 85.5258 50.7285 86.9405 48.9891 86.9405C47.2498 86.9405 45.835 85.5258 45.835 83.7864C45.835 82.0471 47.2491 80.6323 48.9891 80.6323ZM22.7051 48.3269V59.0315C22.7051 61.1436 20.9944 62.8543 18.8823 62.8543C16.7702 62.8543 15.0595 61.1436 15.0595 59.0315V48.3269C15.0595 46.2148 16.7702 44.5041 18.8823 44.5041C20.9937 44.5041 22.7051 46.2148 22.7051 48.3269ZM85.7868 59.0322C85.7868 61.1443 84.0761 62.855 81.964 62.855C79.8519 62.855 78.1412 61.1443 78.1412 59.0322V48.3276C78.1412 46.2155 79.8519 44.5048 81.964 44.5048C84.0761 44.5048 85.7868 46.2155 85.7868 48.3276V59.0322Z"
        fill="#106CA5"/>
  <path d="M58.8439 34.8026H41.8117C35.8475 34.8026 30.9924 39.6581 30.9924 45.6218V54.635C30.9924 58.6973 33.3152 62.4155 36.8894 64.2502L36.0481 68.5511C35.9334 69.1438 36.1721 69.7458 36.6694 70.0898C36.9368 70.2812 37.2428 70.3672 37.5488 70.3672C37.8161 70.3672 38.0842 70.3005 38.3228 70.1571L46.3419 65.445H58.8246C64.7888 65.445 69.6438 60.5894 69.6438 54.6351V45.6219C69.6538 39.6576 64.7982 34.8026 58.844 34.8026L58.8439 34.8026ZM66.5957 54.6248C66.5957 58.897 63.1168 62.3859 58.8346 62.3859H45.9311C45.6538 62.3859 45.3958 62.4626 45.1571 62.5959L39.7088 65.7982L40.1295 63.6287C40.2728 62.8927 39.8621 62.1566 39.1548 61.8986C36.106 60.7705 34.0512 57.8464 34.0512 54.6249V45.6117C34.0512 41.3395 37.5301 37.8506 41.8124 37.8506H58.8345C63.1067 37.8506 66.5956 41.3294 66.5956 45.6117L66.5957 54.6248Z"
        fill="#106CA5"/>
  <path d="M43.3022 51.0509C43.3022 52.1063 42.4462 52.9623 41.3902 52.9623C40.3348 52.9623 39.4788 52.1062 39.4788 51.0509C39.4788 49.9948 40.3348 49.1395 41.3902 49.1395C42.4462 49.1395 43.3022 49.9949 43.3022 51.0509Z" fill="#106CA5"/>
  <path d="M52.1433 51.0509C52.1433 52.1063 51.288 52.9623 50.232 52.9623C49.1766 52.9623 48.3206 52.1062 48.3206 51.0509C48.3206 49.9948 49.1766 49.1395 50.232 49.1395C51.288 49.1395 52.1433 49.9949 52.1433 51.0509Z" fill="#106CA5"/>
  <path d="M60.9842 51.0509C60.9842 52.1063 60.1288 52.9623 59.0728 52.9623C58.0174 52.9623 57.1614 52.1062 57.1614 51.0509C57.1614 49.9948 58.0174 49.1395 59.0728 49.1395C60.1288 49.1395 60.9842 49.9949 60.9842 51.0509Z" fill="#106CA5"/>
</svg>
