<svg width="100" height="100" viewBox="0 0 100 100" fill="none" xmlns="http://www.w3.org/2000/svg">
  <path d="M44.0986 45.0982C46.6338 42.5633 46.6338 38.4372 44.0986 35.9022C41.564 33.3659 37.4361 33.3659 34.9014 35.9022C32.3662 38.4371 32.3662 42.5631 34.9014 45.0982C36.1684 46.3663 37.8346 47 39.4999 47C41.1652 47 42.8316 46.3663 44.0984 45.0982H44.0986ZM36.7983 37.7983C37.543 37.0537 38.5213 36.6811 39.4999 36.6811C40.4786 36.6811 41.4567 37.0537 42.2015 37.7983C43.6909 39.2882 43.6909 41.7104 42.2015 43.2002C40.7114 44.6901 38.289 44.6901 36.799 43.2002C35.3089 41.7116 35.3089 39.2882 36.7983 37.7983H36.7983Z"
        fill="#106CA5"/>
  <path d="M54.9014 56.7558C52.3662 59.0957 52.3662 62.9044 54.9014 65.2445C56.1684 66.4151 57.8347 67 59.5 67C61.1654 67 62.8317 66.415 64.0986 65.2445C66.6338 62.9046 66.6338 59.0959 64.0986 56.7558C61.564 54.4147 57.436 54.4147 54.9013 56.7558H54.9014ZM62.2018 63.4937C60.7117 64.869 58.2892 64.869 56.7992 63.4937C55.3097 62.1184 55.3097 59.8826 56.7992 58.5074C57.5439 57.82 58.5221 57.4761 59.5008 57.4761C60.4796 57.4761 61.4577 57.82 62.2025 58.5074C63.6913 59.8815 63.6913 62.1185 62.2018 63.4937H62.2018Z"
        fill="#106CA5"/>
  <path d="M63.6052 36.3947C63.079 35.8684 62.2273 35.8684 61.7011 36.3947L35.3946 62.7017C34.8685 63.2279 34.8685 64.0797 35.3946 64.6058C35.6574 64.8686 36.0024 65 36.3467 65C36.691 65 37.036 64.868 37.2988 64.6058L63.6053 38.2988C64.1315 37.7732 64.1315 36.9208 63.6059 36.3947H63.6052Z" fill="#106CA5"/>
  <path d="M79.3105 50.4806L88.6998 38.9093C88.9864 38.556 89.0739 38.0822 88.9337 37.6497C88.7936 37.2178 88.4446 36.8863 88.0056 36.7704L73.618 32.9349L74.4208 18.0467C74.4446 17.5936 74.2383 17.1578 73.8719 16.8907C73.5036 16.6249 73.0279 16.5611 72.6037 16.7246L58.713 22.0897L50.6229 9.57158C50.128 8.80947 48.8712 8.80947 48.3764 9.57158L40.2863 22.0897L26.3957 16.7246C25.9727 16.5605 25.4945 16.6242 25.1274 16.8907C24.7604 17.1585 24.5534 17.5936 24.5785 18.0467L25.3813 32.9349L10.9938 36.7698C10.5554 36.8869 10.2057 37.2184 10.0656 37.649C9.92544 38.0816 10.0129 38.5553 10.2995 38.9087L19.6888 50.48L10.2995 62.0519C10.0129 62.4053 9.92545 62.879 10.0656 63.3116C10.2057 63.7435 10.5547 64.075 10.9938 64.1908L25.3813 68.0264L24.5785 82.9145C24.5547 83.3676 24.7611 83.8034 25.1274 84.0705C25.4951 84.3364 25.9727 84.3988 26.3957 84.2366L40.2863 78.8711L48.3764 91.3892C48.6232 91.7702 49.0462 92 49.5 92C49.9532 92 50.3761 91.7702 50.6236 91.3892L58.7137 78.8711L72.6043 84.2366C73.0254 84.3988 73.503 84.3383 73.8726 84.0705C74.2396 83.8028 74.4466 83.3676 74.4215 82.9145L73.6187 68.0264L88.0063 64.1908C88.4446 64.0737 88.7943 63.7422 88.9344 63.3116C89.0746 62.879 88.9871 62.4053 88.7005 62.0519L79.3105 50.4806ZM71.8786 65.7189C71.2666 65.8824 70.8527 66.4527 70.8868 67.0854L71.6369 80.9931L58.6604 75.9795C58.0696 75.7504 57.4005 75.9705 57.0553 76.5009L49.4993 88.1958L41.9427 76.5016C41.6901 76.1122 41.2626 75.8907 40.8191 75.8907C40.6578 75.8907 40.4945 75.9191 40.337 75.9802L27.3605 80.9938L28.1106 67.0861C28.1447 66.4534 27.7307 65.8831 27.1188 65.7196L13.6787 62.1356L22.4496 51.3253C22.8494 50.8322 22.8494 50.1287 22.4496 49.6356L13.6787 38.8265L27.1188 35.2425C27.7307 35.079 28.1447 34.5087 28.1106 33.876L27.3605 19.9683L40.337 24.9806C40.9277 25.2103 41.5969 24.9896 41.9421 24.4592L49.4994 12.7643L57.056 24.4585C57.4005 24.9902 58.0703 25.2103 58.661 24.9799L71.6376 19.9676L70.8874 33.8767C70.8534 34.5094 71.2673 35.0797 71.8793 35.2432L85.3194 38.8271L76.5485 49.6363C76.1487 50.1294 76.1487 50.8329 76.5485 51.3259L85.3194 62.1363L71.8786 65.7189Z"
        fill="#106CA5"/>
</svg>
