<svg width="76" height="65" viewBox="0 0 76 65" fill="none" xmlns="http://www.w3.org/2000/svg">
  <path fill-rule="evenodd" clip-rule="evenodd"
        d="M35.5678 0.0772161C16.9873 1.25743 1.75373 16.4144 0.147149 35.3064C-0.58329 43.8884 1.42366 52.2134 5.76644 59.2859C7.61462 62.3059 10.9329 64.125 14.4934 64.125H61.503C65.0648 64.125 68.3881 62.2972 70.2462 59.2695C73.9875 53.1645 76 46.1121 76 38.758C76 16.7564 58.092 -0.804826 36.5217 0.0284769L35.5678 0.0772161ZM72.7777 38.758C72.7777 45.5166 70.9308 51.9889 67.4978 57.5907C66.2304 59.6558 63.9518 60.9091 61.503 60.9091H14.4933C12.0449 60.9091 9.77345 59.6639 8.51505 57.6076C4.52806 51.1145 2.68588 43.473 3.35781 35.5785C4.83048 18.2612 18.7969 4.36489 35.7724 3.28662C55.889 2.00831 72.7777 18.2692 72.7777 38.758ZM13.8708 39.9389C13.8708 39.0508 13.1494 38.3309 12.2596 38.3309H9.44338L9.15378 38.3568C8.40219 38.493 7.83225 39.1495 7.83225 39.9389C7.83225 40.8269 8.55358 41.5468 9.44338 41.5468H12.2596L12.5492 41.5209C13.3008 41.3848 13.8708 40.7283 13.8708 39.9389ZM15.9641 17.452C16.5297 16.9001 17.3985 16.8479 18.0214 17.289L18.2425 17.4776L20.3627 19.6419C20.9848 20.2769 20.9733 21.2949 20.337 21.9157C19.7715 22.4676 18.9027 22.5198 18.2797 22.0787L18.0587 21.8901L15.9384 19.7258C15.3164 19.0908 15.3279 18.0728 15.9641 17.452ZM39.5351 9.1535C39.3987 8.40339 38.7408 7.83458 37.9499 7.83458C37.0601 7.83458 36.3388 8.55448 36.3388 9.44253V12.1953L36.3647 12.4844C36.5011 13.2345 37.159 13.8033 37.9499 13.8033C38.8397 13.8033 39.561 13.0834 39.561 12.1953V9.44253L39.5351 9.1535ZM58.1939 17.5132C58.8158 16.8781 59.8358 16.8664 60.4722 17.4871C61.0378 18.0389 61.1099 18.9046 60.6822 19.5362L60.4983 19.761L58.4135 21.8899C57.7916 22.525 56.7715 22.5367 56.1352 21.916C55.5695 21.3642 55.4974 20.4985 55.9252 19.8669L56.1091 19.6421L58.1939 17.5132ZM68.1077 39.9405C68.1077 39.0524 67.3864 38.3325 66.4966 38.3325H63.5611L63.2715 38.3584C62.5199 38.4946 61.9499 39.1511 61.9499 39.9405C61.9499 40.8285 62.6713 41.5484 63.5611 41.5484H66.4966L66.7862 41.5225C67.5378 41.3864 68.1077 40.7299 68.1077 39.9405ZM34.3582 41.5195L20.5954 27.4695L20.3744 27.2809C19.7515 26.8397 18.8827 26.8919 18.3171 27.4437C17.6808 28.0645 17.6693 29.0826 18.2913 29.7176L32.0931 43.8074C30.4512 46.4969 30.7764 50.0749 33.0693 52.4134C35.7603 55.1579 40.1385 55.1579 42.8263 52.4125C45.4972 49.6884 45.4972 45.2803 42.8254 42.5553C40.5353 40.2125 37.0144 39.867 34.3582 41.5195ZM40.5223 50.1641C41.9685 48.6892 41.9685 46.2795 40.5205 44.8027C39.0968 43.3462 36.7999 43.3462 35.3731 44.8036L35.0851 45.1335C33.9334 46.619 34.0293 48.7945 35.3722 50.1641C36.7992 51.6195 39.0975 51.6195 40.5223 50.1641Z"
        fill="#106CA5"/>
</svg>
