<svg width="58" height="80" viewBox="0 0 58 80" fill="none" xmlns="http://www.w3.org/2000/svg">
  <path d="M41.6079 76.2506C42.3045 76.2506 42.8691 75.6815 42.8691 74.9794C42.8691 74.2773 42.3045 73.7082 41.6079 73.7082L6.30407 73.7091C4.2179 73.7091 2.5213 71.9991 2.5213 69.8964V39.3962H7.57483C7.56691 43.5182 8.72258 47.5613 10.9926 51.1072C11.2143 51.4538 11.4632 51.7738 11.7015 52.1045H10.0867C9.39016 52.1045 8.82553 52.6736 8.82553 53.3757C8.82553 54.0778 9.39016 54.6469 10.0867 54.6469H13.8299C15.3365 56.1751 17.0541 57.4543 18.9354 58.4596L10.0867 58.4587C9.39016 58.4587 8.82553 59.0278 8.82553 59.7299C8.82553 60.432 9.39016 61.0011 10.0867 61.0011H27.7382C27.8305 61.0011 27.9123 60.9675 27.9994 60.948C28.3468 60.9648 28.696 61.0038 29.0425 61.0038C32.4524 61.0038 35.8022 60.1679 38.8602 58.5633L50.9007 79.3697C51.1355 79.7739 51.5568 80 51.9913 80C52.2068 80 52.4258 79.9442 52.6254 79.8271C53.227 79.4734 53.4301 78.6951 53.0792 78.0888L46.8673 67.3545H47.9121C48.6087 67.3545 49.1733 66.7854 49.1733 66.0833C49.1733 65.3812 48.6087 64.812 47.9121 64.812H45.3958L43.1892 60.9993L47.9122 61.0002C48.6087 61.0002 49.1734 60.4311 49.1734 59.729C49.1734 59.0269 48.6087 58.4578 47.9122 58.4578H41.7196L41.023 57.2531C42.1602 56.4765 43.213 55.606 44.1673 54.646H47.9122C48.6088 54.646 49.1734 54.0769 49.1734 53.3748C49.1734 52.6727 48.6088 52.1036 47.9122 52.1036H46.3186C48.0565 49.6985 49.307 46.9435 49.9482 43.948C50.2728 42.433 50.4214 40.9091 50.424 39.3952L55.4776 39.3961V74.9796C55.4776 75.6817 56.0422 76.2509 56.7388 76.2509C57.4354 76.2509 58 75.6817 58 74.9796L57.9991 6.3542C57.9991 2.85077 55.1708 0 51.6949 0H6.30425C2.82835 0 0 2.85077 0 6.3542V69.8963C0 73.3997 2.82835 76.2505 6.30425 76.2505L41.6079 76.2506ZM47.483 43.413C46.4188 48.3897 43.4953 52.65 39.251 55.4104C35.0064 58.1699 29.9495 59.099 25.0146 58.0263C20.0771 56.9537 15.8503 54.007 13.1115 49.7291C10.3728 45.4518 9.45192 40.3555 10.5162 35.3799C11.5804 30.4032 14.5039 26.1429 18.7482 23.3825C21.8414 21.3711 25.3657 20.3313 28.9618 20.3313C30.2995 20.3313 31.6469 20.4749 32.9855 20.7666C37.9231 21.8392 42.1498 24.7859 44.8886 29.0638C47.6255 33.3411 48.5473 38.4374 47.483 43.413ZM50.2684 36.855C49.891 33.6257 48.8066 30.4981 47.0064 27.6854C43.9026 22.8374 39.1121 19.4971 33.5166 18.2816C27.9229 17.0689 22.1912 18.1194 17.3804 21.2468C12.5705 24.3751 9.25649 29.2036 8.05057 34.8434C7.90722 35.5127 7.80079 36.1838 7.72077 36.8548H2.52112V15.2508H55.4768V36.8548L50.2684 36.855ZM6.30295 2.54227H51.6936C53.7797 2.54227 55.4763 4.25228 55.4763 6.35502V12.7092L2.52062 12.7083V6.35413C2.52062 4.25232 4.21806 2.54229 6.3034 2.54229L6.30295 2.54227ZM40.9853 32.0644C41.4779 32.5608 41.4779 33.3648 40.9853 33.8613L26.6812 48.2796C26.4349 48.5279 26.1122 48.6519 25.7894 48.6519C25.4666 48.6519 25.1439 48.5278 24.8976 48.2796L18.2372 41.5664C17.7446 41.07 17.7446 40.2659 18.2372 39.7695C18.7297 39.2731 19.5274 39.2731 20.0199 39.7695L25.7894 45.5848L39.2026 32.0653C39.6952 31.568 40.4928 31.568 40.9853 32.0644ZM46.6511 7.62564C46.6511 6.22412 47.7821 5.08418 49.1725 5.08418C50.563 5.08418 51.694 6.22417 51.694 7.62564C51.694 9.0271 50.563 10.1671 49.1725 10.1671C47.782 10.1671 46.6511 9.0271 46.6511 7.62564ZM39.0864 7.62564C39.0864 6.22412 40.2174 5.08418 41.6079 5.08418C42.9983 5.08418 44.1294 6.22417 44.1294 7.62564C44.1294 9.0271 42.9983 10.1671 41.6079 10.1671C40.2174 10.1671 39.0864 9.0271 39.0864 7.62564ZM31.5209 7.62564C31.5209 6.22412 32.6519 5.08418 34.0423 5.08418C35.4328 5.08418 36.5638 6.22417 36.5638 7.62564C36.5638 9.0271 35.4328 10.1671 34.0423 10.1671C32.6518 10.1671 31.5209 9.0271 31.5209 7.62564ZM36.5647 64.8135C37.2613 64.8135 37.8259 65.3826 37.8259 66.0847C37.8259 66.7868 37.2613 67.3559 36.5647 67.3559L10.0869 67.355C9.39028 67.355 8.82564 66.7859 8.82564 66.0838C8.82564 65.3817 9.39028 64.8126 10.0869 64.8126L36.5647 64.8135Z"
        fill="#106CA5"/>
</svg>
